PathFileType	4	(X/Y/Z)	C:/Users/opensim2020/Desktop/walking_exp_matlab/subject06_walking16_straight_01.trc	
DataRate	CameraRate	NumFrames	NumMarkers	Units	OrigDataRate	OrigDataStartFrame	OrigNumFrames	
100.00	100.00	4	51	mm	100.00	1120	333	
Frame#	Time	LFHD			RFHD			LBHD			RBHD			C7			T10			CLAV			STRN			RBAK			LSHO			LUPA			LELB			LFRM			LWRA			LWRB			LFIN			RSHO			RUPA			RELB			RFRM			RWRA			RWRB			RFIN			LASI			RASI			LPSI			RPSI			LTHI			LKNE			LTIB			LANK			LHEE			LTOE			RTHI			RKNE			RTIB			RANK			RHEE			RTOE			*39			*40			*41			*42			*43			*44			*45			*46			*47			*48			*49			*50			
		X1	Y1	Z1	X2	Y2	Z2	X3	Y3	Z3	X4	Y4	Z4	X5	Y5	Z5	X6	Y6	Z6	X7	Y7	Z7	X8	Y8	Z8	X9	Y9	Z9	X10	Y10	Z10	X11	Y11	Z11	X12	Y12	Z12	X13	Y13	Z13	X14	Y14	Z14	X15	Y15	Z15	X16	Y16	Z16	X17	Y17	Z17	X18	Y18	Z18	X19	Y19	Z19	X20	Y20	Z20	X21	Y21	Z21	X22	Y22	Z22	X23	Y23	Z23	X24	Y24	Z24	X25	Y25	Z25	X26	Y26	Z26	X27	Y27	Z27	X28	Y28	Z28	X29	Y29	Z29	X30	Y30	Z30	X31	Y31	Z31	X32	Y32	Z32	X33	Y33	Z33	X34	Y34	Z34	X35	Y35	Z35	X36	Y36	Z36	X37	Y37	Z37	X38	Y38	Z38	X39	Y39	Z39	X40	Y40	Z40	X41	Y41	Z41	X42	Y42	Z42	X43	Y43	Z43	X44	Y44	Z44	X45	Y45	Z45	X46	Y46	Z46	X47	Y47	Z47	X48	Y48	Z48	X49	Y49	Z49	X50	Y50	Z50	X51	Y51	Z51	

250	2.490	-1113.45020	549.09637	1666.81787	-983.08527	533.16565	1653.84509	-1132.05444	417.61334	1613.43359	-1003.93781	402.83664	1605.03247	-1073.93030	406.57239	1456.38721	-1060.56226	358.74628	1129.73730	-1062.98645	514.79651	1375.83228	-1064.62524	547.72809	1198.99768	-995.76697	323.81580	1290.57043	-1227.35010	474.58035	1407.34143	-1300.34082	507.05145	1208.82593	-1313.79150	530.89117	1098.22107	-1326.13110	609.23956	968.67047	-1272.80518	703.43188	887.65881	-1312.76611	653.62494	857.60999	-1308.73096	724.09644	801.87482	-906.09735	461.45837	1410.94824	-820.44153	413.13470	1213.71765	-806.87738	417.82458	1092.10559	-786.22729	421.57462	972.23364	-809.74182	466.42282	826.23566	-772.65869	411.39133	834.41504	-767.17743	440.67975	754.88306	-1154.82483	535.87750	959.85376	-934.73279	526.74579	974.32019	-1132.99438	377.48434	994.70282	-964.59662	375.84912	998.62347	-1199.31714	442.15176	647.79596	-1172.96692	421.14594	485.53903	-1151.65137	374.31036	233.01012	-1095.61023	371.43109	63.62226	-1047.26575	334.43604	51.55582	-1104.41284	517.19867	34.18804	-869.11658	532.34186	646.95337	-892.91113	573.48065	527.41083	-895.32843	520.90375	269.55945	-935.98413	499.01337	84.19160	-983.91846	461.32950	60.28825	-927.91345	646.47632	41.51172	-1067.20715	442.61768	1704.83887																																	 
251	2.500	-1113.47852	555.23627	1666.45398	-983.18201	539.24902	1653.24536	-1132.31970	423.81085	1613.00085	-1004.12427	408.89810	1604.34680	-1074.18713	412.55084	1456.01233	-1060.81531	364.52484	1129.44409	-1063.42334	520.82336	1375.33411	-1065.31885	553.52203	1198.42078	-996.13806	329.93005	1290.18140	-1227.61707	480.41159	1407.32654	-1300.10486	514.37231	1208.95447	-1313.31580	538.80261	1098.48218	-1324.79382	618.63403	969.76581	-1271.95471	714.85022	891.07257	-1310.67896	665.11029	859.66113	-1306.23267	735.90918	804.56342	-906.46704	467.75284	1410.36108	-820.78137	419.51715	1213.09705	-807.40979	423.60483	1091.54614	-786.80475	426.99402	971.68225	-810.43396	471.49261	825.49548	-773.06177	416.77786	834.02386	-767.85376	445.59848	754.26947	-1155.61072	541.42902	959.36133	-935.50812	533.01843	973.81152	-1133.42798	383.07703	994.31396	-965.12787	382.16422	998.14038	-1199.67822	446.67877	647.48755	-1173.16638	424.91580	485.30780	-1151.78235	376.02774	233.14513	-1095.47156	371.72287	63.74404	-1047.09497	334.61063	51.80736	-1104.38464	517.27301	34.16328	-869.58429	537.71198	646.30029	-893.39093	579.76306	527.04346	-895.69336	536.38654	267.78455	-935.81384	521.39624	81.62961	-983.70709	484.63138	57.25546	-929.67401	670.39081	41.01431	-1067.29053	448.65250	1704.25574																																	 
252	2.510	-1113.56079	561.37604	1666.01514	-983.20398	545.28217	1652.64648	-1132.46204	429.99838	1612.50366	-1004.29132	414.98834	1603.70471	-1074.34509	418.86938	1455.55212	-1061.02869	370.46912	1128.99536	-1063.80811	526.93243	1374.76270	-1065.97095	559.40149	1197.81384	-996.37494	336.05325	1289.75818	-1227.78308	486.19897	1406.97156	-1299.78601	521.64587	1208.96106	-1312.71765	546.53107	1098.40759	-1323.82043	628.34198	970.90002	-1270.54468	726.07428	894.44397	-1308.51563	676.54309	861.76636	-1303.82617	748.20154	807.74347	-906.74280	474.05722	1409.72998	-821.04810	425.41391	1212.65454	-807.92010	429.35791	1090.95325	-787.39795	432.45255	971.01923	-811.06989	476.72510	824.89154	-773.86438	421.98965	833.30792	-768.55408	450.64835	753.58716	-1156.47253	546.99878	958.79395	-936.26355	539.39716	973.24115	-1133.83215	388.80078	993.83911	-965.45349	388.24063	997.68219	-1200.04565	451.24194	647.18854	-1173.45715	428.81424	485.08527	-1151.80127	377.79456	233.02151	-1095.34705	372.02283	63.87527	-1046.97205	334.79529	52.05998	-1104.39282	517.34259	34.15314	-869.32196	544.35748	646.07428	-893.87549	585.81110	526.44849	-896.01917	551.54590	266.25723	-936.19440	543.94391	79.51860	-983.78571	506.89841	54.98024	-931.23566	694.05273	41.48928	-1067.31238	454.79657	1703.71045																																	 
253	2.520	-1113.53674	567.55573	1665.45728	-983.19818	551.39520	1652.01331	-1132.50916	436.13342	1611.95923	-1004.34351	421.12933	1603.02808	-1074.48621	425.01294	1455.02051	-1061.19897	376.48560	1128.48169	-1064.13232	533.08850	1374.19885	-1066.55334	565.29022	1197.15930	-996.57043	342.29791	1289.16565	-1228.03345	492.19986	1406.70203	-1299.51563	528.70844	1208.81445	-1312.18188	554.16736	1098.38733	-1322.22998	637.65680	971.96100	-1268.83936	737.06073	897.75281	-1306.15137	687.83423	863.75195	-1301.01941	759.98645	810.53174	-906.93524	480.37311	1409.05396	-821.56183	431.45282	1211.82800	-808.20752	434.58096	1090.26282	-787.86591	438.16467	970.36230	-811.66986	482.01840	824.10413	-774.38025	427.06558	832.64624	-769.16650	455.69601	752.87384	-1157.26257	552.61090	958.25543	-936.94806	545.75568	972.47760	-1134.20032	394.55350	993.36847	-965.85760	394.59225	997.09229	-1200.46057	455.94589	646.84430	-1173.77209	432.85959	484.78317	-1151.98022	379.83020	233.17145	-1095.22388	372.34467	64.02884	-1046.81421	334.92117	52.35481	-1104.40881	517.43158	34.17081	-869.62122	549.68646	645.10364	-894.56012	591.81238	525.74841	-896.40106	566.15295	264.90808	-936.34894	565.67419	78.01568	-983.80420	529.19855	52.97826	-932.50433	717.18396	42.76268	-1067.28552	460.85147	1703.13989																																	 
